<?xml version="1.0" encoding="utf-8"?>
<svg version="1.1" id="Layer_1" xmlns="http://www.w3.org/2000/svg" xmlns:xlink="http://www.w3.org/1999/xlink" x="0px" y="0px"
	 viewBox="0 0 16 16" style="enable-background:new 0 0 16 16;" xml:space="preserve">
<style type="text/css">
    .st0{fill:#071D49;}
	.st1{fill:#FFFFFF;}
    @media (prefers-color-scheme: dark) {
      .st0{fill:#FFFFFF;}
	  .st1{fill:#071D49;}
    }
</style>
<rect id="XMLID_18_" x="0" y="0" class="st0" width="16" height="16"/>
<path class="st1" d="M14.1,12.4c-0.6,0-0.9-0.3-1-0.9l-0.2-1c-0.3,0.6-1.4,1.8-3.8,1.8H6.3c-3.8,0-4.8-2.5-4.8-4.4
	c0-2.1,1.3-4.4,4.8-4.4h2.8c2.7,0,4.2,1.6,4.5,3.5c0.3,1.6,1,5.4,1,5.4H14.1z M8.8,4.8H6.4C3.8,4.8,2.9,6.5,2.9,8
	c0,1.5,0.9,3.2,3.6,3.2h2.4c2.8,0,3.6-1.8,3.6-3.2C12.4,6.7,11.6,4.8,8.8,4.8"/>
</svg>
